<svg fill="none" viewBox="0 0 50 35" width="60" height="60" xmlns="http://www.w3.org/2000/svg">
  <style>
    .text {
      fill: black;
    }
    @media (prefers-color-scheme: dark) {
      .text {
        fill: white;
      }
    }
  </style>
  <path class="text" stroke="black" clip-rule="evenodd" fill-rule="evenodd" d="M 34.9394 29.9193 C 34.0357 30.8264 32.9295 31.2799 31.6208 31.2799 L 16.0403 31.2799 C 14.7524 31.2799 13.6513 30.8212 12.7373 29.9036 C 11.8232 28.9861 11.3662 27.8808 11.3662 26.5879 V 25.7844 C 11.3662 25.3644 11.7075 25.0239 12.1285 25.0239 L 29.3005 25.0239 C 29.7214 25.0239 30.0627 24.6835 30.0627 24.2635 V 19.5284 C 30.0627 19.1084 29.7214 18.768 29.3005 18.768 L 16.0403 18.768 C 14.7524 18.768 13.6513 18.3092 12.7373 17.3916 C 11.8232 16.4741 11.3662 15.3689 11.3662 14.076 L 11.3662 4.692 C 11.3662 3.3782 11.8232 2.2678 12.7373 1.3607 C 13.6513 0.4536 14.7524 0 16.0403 0 L 31.6208 0 C 32.9295 0 34.0357 0.4536 34.9394 1.3607 C 35.8431 2.2678 36.2949 3.3782 36.2949 4.692 V 5.4955 C 36.2949 5.9155 35.9536 6.256 35.5326 6.256 L 18.3606 6.256 C 17.9397 6.256 17.5984 6.5965 17.5984 7.0165 V 11.7515 C 17.5984 12.1715 17.9397 12.512 18.3607 12.512 L 31.6208 12.512 C 32.9295 12.512 34.0357 12.9655 34.9394 13.8726 C 35.8431 14.7798 36.2949 15.8902 36.2949 17.204 v 9.3839 c 0 1.3138 -0.4518 2.4242 -1.3555 3.3314 V 30.5831"></path>
  <path d="M3.16424 27.8632C2.56623 27.716 1.95645 28.0813 1.8679 28.6907C1.63405 30.3002 1.74375 31.9455 2.1949 33.5168C2.74891 35.4465 3.7985 37.1974 5.23927 38.5955C6.68004 39.9935 8.46176 40.99 10.4072 41.4857C11.9914 41.8894 13.6392 41.9495 15.2409 41.6674C15.8474 41.5605 16.1942 40.94 16.0291 40.3467L15.3942 38.0645C15.2291 37.4712 14.6137 37.1337 14.0016 37.2011C13.1813 37.2915 12.3483 37.2343 11.5428 37.029C10.3755 36.7316 9.30652 36.1337 8.44205 35.2949C7.57759 34.456 6.94784 33.4055 6.61543 32.2477C6.38603 31.4487 6.30377 30.6178 6.36941 29.7952C6.41839 29.1813 6.06259 28.5763 5.46458 28.4292L3.16424 27.8632Z" fill="#48FCD1"></path>
</svg>